<svg width="33" height="33" viewBox="0 0 33 33" fill="none" xmlns="http://www.w3.org/2000/svg">
<path d="M3.73996 17.2288L13.365 26.8538C13.5657 27.0546 13.8298 27.1563 14.0938 27.1563C14.3578 27.1563 14.6218 27.056 14.8225 26.8538C15.2254 26.451 15.2254 25.7978 14.8225 25.3949L6.9575 17.5299H29.2188C29.788 17.5299 30.25 17.0679 30.25 16.4987C30.25 15.9294 29.788 15.4674 29.2188 15.4674H6.95884L14.8239 7.6024C15.2268 7.19952 15.2268 6.54643 14.8239 6.14356C14.421 5.74068 13.7678 5.74068 13.365 6.14356L3.73996 15.7686C3.33709 16.1742 3.33709 16.826 3.73996 17.2288Z" fill="#9B9B9B"/>
</svg>
