<svg width="31" height="31" viewBox="0 0 31 31" fill="none" xmlns="http://www.w3.org/2000/svg">
<path d="M27.4867 16.1846L18.445 25.2263C18.2564 25.4149 18.0084 25.5104 17.7604 25.5104C17.5124 25.5104 17.2644 25.4162 17.0758 25.2263C16.6973 24.8479 16.6973 24.2343 17.0758 23.8558L24.4641 16.4675H3.55206C3.01731 16.4675 2.58331 16.0335 2.58331 15.4988C2.58331 14.964 3.01731 14.53 3.55206 14.53H24.4629L17.0745 7.14163C16.6961 6.76318 16.6961 6.14967 17.0745 5.77121C17.453 5.39275 18.0666 5.39275 18.445 5.77121L27.4867 14.8129C27.8651 15.1939 27.8651 15.8062 27.4867 16.1846Z" fill="white"/>
</svg>
