<svg width="24" height="24" viewBox="0 0 24 24" fill="none" xmlns="http://www.w3.org/2000/svg">
<path d="M21.6857 16.6001C21.6627 16.4651 21.6348 16.3472 21.6058 16.2422C21.4308 15.6172 20.8867 15.1411 20.2197 15.0311L15.8877 14.3102C15.2497 14.2032 14.6107 14.4501 14.2187 14.9521C14.1647 15.0211 14.1128 15.0911 14.0648 15.1621C13.9938 15.2661 13.8528 15.3631 13.6998 15.2961C11.4528 14.3191 9.67875 12.5451 8.70275 10.2981C8.63475 10.1431 8.72972 10.0071 8.83172 9.93809C8.92672 9.87409 9.01872 9.80514 9.10772 9.73314C9.59472 9.33914 9.83676 8.70912 9.73876 8.08812L9.06774 3.83311C8.96474 3.18111 8.51777 2.64807 7.89977 2.44407C7.75477 2.39607 7.58678 2.35212 7.39178 2.31712C6.12578 2.09112 4.83075 2.44908 3.83575 3.30308C2.79275 4.19908 2.21474 5.50115 2.25274 6.87315C2.47174 14.9952 9.00373 21.5282 17.1257 21.7472C17.1667 21.7482 17.2078 21.7491 17.2488 21.7491C18.5658 21.7491 19.8107 21.1791 20.6797 20.1731C21.5407 19.1761 21.9077 17.8731 21.6857 16.6001ZM19.5428 19.1931C18.9418 19.8881 18.0677 20.2591 17.1647 20.2491C9.84073 20.0511 3.94872 14.1581 3.75072 6.83311C3.72672 5.91411 4.11274 5.04215 4.81274 4.44114C5.34174 3.98714 5.97273 3.74913 6.63073 3.74913C6.79473 3.74913 6.96076 3.76407 7.12676 3.79307C7.24276 3.81407 7.34173 3.83915 7.42773 3.86815C7.51073 3.89515 7.57172 3.97212 7.58672 4.06712L8.25774 8.32213C8.27274 8.41513 8.23676 8.50914 8.16576 8.56614C8.10776 8.61314 8.04872 8.6571 7.98772 8.6981C7.25372 9.1971 6.98177 10.1011 7.32677 10.8961C8.45477 13.4921 10.5058 15.5431 13.1008 16.6711C13.8928 17.0151 14.7988 16.7442 15.3038 16.0072C15.3338 15.9642 15.3647 15.9212 15.3987 15.8772C15.4527 15.8082 15.5468 15.7752 15.6418 15.7892L19.9737 16.5101C20.0657 16.5261 20.1427 16.5821 20.1617 16.6471C20.1797 16.7091 20.1947 16.7782 20.2087 16.8572C20.3527 17.6852 20.1098 18.5361 19.5428 19.1931Z" fill="black" fill-opacity="0.3"/>
</svg>
