<svg width="21" height="21" viewBox="0 0 21 21" fill="none" xmlns="http://www.w3.org/2000/svg">
<path d="M18.8476 6.10901H13.8476" stroke="white" stroke-width="1.5" stroke-miterlimit="10" stroke-linecap="round" stroke-linejoin="round"/>
<path d="M5.51429 6.10901H2.18095" stroke="white" stroke-width="1.5" stroke-miterlimit="10" stroke-linecap="round" stroke-linejoin="round"/>
<path d="M8.84762 9.02565C10.4585 9.02565 11.7643 7.71982 11.7643 6.10899C11.7643 4.49816 10.4585 3.19232 8.84762 3.19232C7.23679 3.19232 5.93095 4.49816 5.93095 6.10899C5.93095 7.71982 7.23679 9.02565 8.84762 9.02565Z" stroke="white" stroke-width="1.5" stroke-miterlimit="10" stroke-linecap="round" stroke-linejoin="round"/>
<path d="M18.8476 15.2756H15.5143" stroke="white" stroke-width="1.5" stroke-miterlimit="10" stroke-linecap="round" stroke-linejoin="round"/>
<path d="M7.18095 15.2756H2.18095" stroke="white" stroke-width="1.5" stroke-miterlimit="10" stroke-linecap="round" stroke-linejoin="round"/>
<path d="M12.1809 18.1923C13.7918 18.1923 15.0976 16.8865 15.0976 15.2757C15.0976 13.6648 13.7918 12.359 12.1809 12.359C10.5701 12.359 9.26428 13.6648 9.26428 15.2757C9.26428 16.8865 10.5701 18.1923 12.1809 18.1923Z" stroke="white" stroke-width="1.5" stroke-miterlimit="10" stroke-linecap="round" stroke-linejoin="round"/>
</svg>
