<svg width="20" height="20" viewBox="0 0 20 20" fill="none" xmlns="http://www.w3.org/2000/svg">
<path d="M10.0004 4.99959C8.16207 4.99959 6.66707 6.49459 6.66707 8.33293C6.66707 10.1713 8.16207 11.6663 10.0004 11.6663C11.8387 11.6663 13.3337 10.1713 13.3337 8.33293C13.3337 6.49459 11.8387 4.99959 10.0004 4.99959ZM10.0004 9.99959C9.08124 9.99959 8.33374 9.25209 8.33374 8.33293C8.33374 7.41376 9.08124 6.66626 10.0004 6.66626C10.9196 6.66626 11.6671 7.41376 11.6671 8.33293C11.6671 9.25209 10.9196 9.99959 10.0004 9.99959ZM9.99707 1.66626C6.19791 1.66626 3.33374 4.53209 3.33374 8.33293C3.33374 13.6046 7.34374 16.8829 9.0679 18.0471C9.34957 18.2379 9.67374 18.3337 9.99707 18.3337C10.3196 18.3337 10.6421 18.2387 10.9237 18.0487C12.6504 16.8829 16.6662 13.6029 16.6662 8.33293C16.6671 4.53209 13.7996 1.66626 9.99707 1.66626ZM10.0012 16.6663C8.49791 15.6504 5.00041 12.8054 5.00041 8.33293C5.00041 5.43543 7.10124 3.33293 9.99707 3.33293C12.8496 3.33293 15.0004 5.48209 15.0004 8.33293C15.0004 12.8029 11.4979 15.6504 10.0012 16.6663Z" fill="#13362A"/>
</svg>
