<svg width="20" height="18" viewBox="0 0 20 18" fill="none" xmlns="http://www.w3.org/2000/svg">
<path d="M17.5476 8.72278L15.0564 10.9669L15.6444 14.1326C15.7404 14.6494 15.518 15.1646 15.0636 15.4766C14.6004 15.7939 13.9956 15.8374 13.4852 15.5907L10.4004 14.0929L7.31559 15.5907C7.09639 15.6972 6.8588 15.7496 6.6228 15.7496C6.3108 15.7496 6.00118 15.6574 5.73718 15.4766C5.28358 15.1646 5.06039 14.6494 5.15639 14.1326L5.74438 10.9669L3.25319 8.72278C2.84519 8.35528 2.69877 7.81463 2.87157 7.31213C3.04597 6.80363 3.50837 6.44143 4.07797 6.36493L7.52519 5.90204L9.06598 3.01831C9.31878 2.54431 9.83078 2.25037 10.4004 2.25037C10.97 2.25037 11.482 2.54506 11.7348 3.01831L13.2756 5.90204L16.7228 6.36493C17.2916 6.44143 17.754 6.80363 17.9284 7.31213C18.1012 7.81463 17.9556 8.35528 17.5476 8.72278Z" fill="#FFA800"/>
</svg>
